@startuml


class Person{
       -String name;
       -Int age;
       -String description;
}

class Dict{
    -String dictName;
    -String dictCode;
    -String dict;
}

Person <|-- Dict

abstract class AbstractList
abstract AbstractCollection
interface List
interface Collection

List <|-- AbstractList
Collection <|-- AbstractCollection

Collection <|- List
AbstractCollection <|- AbstractList
AbstractList <|-- ArrayList

class ArrayList {
Object[] elementData
size()
}

enum TimeUnit {
DAYS
HOURS
MINUTES
}

@enduml
